<svg width="400" height="300" viewBox="0 0 400 300" xmlns="http://www.w3.org/2000/svg">
  <!-- Sky background -->
  <rect width="400" height="120" fill="#87CEEB"/>
  <!-- Ground -->
  <rect x="0" y="180" width="400" height="120" fill="#8FBC8F"/>
  <!-- Iron posts -->
  <rect x="30" y="120" width="8" height="60" fill="#2F4F4F"/>
  <rect x="90" y="120" width="8" height="60" fill="#2F4F4F"/>
  <rect x="150" y="120" width="8" height="60" fill="#2F4F4F"/>
  <rect x="210" y="120" width="8" height="60" fill="#2F4F4F"/>
  <rect x="270" y="120" width="8" height="60" fill="#2F4F4F"/>
  <rect x="330" y="120" width="8" height="60" fill="#2F4F4F"/>
  <!-- Horizontal rails -->
  <rect x="20" y="135" width="320" height="4" fill="#2F4F4F"/>
  <rect x="20" y="155" width="320" height="4" fill="#2F4F4F"/>
  <!-- Decorative spear points -->
  <polygon points="34,120 38,110 42,120" fill="#2F4F4F"/>
  <polygon points="94,120 98,110 102,120" fill="#2F4F4F"/>
  <polygon points="154,120 158,110 162,120" fill="#2F4F4F"/>
  <polygon points="214,120 218,110 222,120" fill="#2F4F4F"/>
  <polygon points="274,120 278,110 282,120" fill="#2F4F4F"/>
  <polygon points="334,120 338,110 342,120" fill="#2F4F4F"/>
  <!-- Decorative scrollwork -->
  <circle cx="65" cy="145" r="8" fill="none" stroke="#2F4F4F" stroke-width="2"/>
  <circle cx="125" cy="145" r="8" fill="none" stroke="#2F4F4F" stroke-width="2"/>
  <circle cx="185" cy="145" r="8" fill="none" stroke="#2F4F4F" stroke-width="2"/>
  <circle cx="245" cy="145" r="8" fill="none" stroke="#2F4F4F" stroke-width="2"/>
  <circle cx="305" cy="145" r="8" fill="none" stroke="#2F4F4F" stroke-width="2"/>
</svg>
