<svg width="400" height="300" viewBox="0 0 400 300" xmlns="http://www.w3.org/2000/svg">
  <!-- Sky background -->
  <rect width="400" height="120" fill="#87CEEB"/>
  <!-- Ground -->
  <rect x="0" y="180" width="400" height="120" fill="#8FBC8F"/>
  <!-- Fence posts -->
  <rect x="20" y="130" width="15" height="50" fill="#8B4513"/>
  <rect x="80" y="130" width="15" height="50" fill="#8B4513"/>
  <rect x="140" y="130" width="15" height="50" fill="#8B4513"/>
  <rect x="200" y="130" width="15" height="50" fill="#8B4513"/>
  <rect x="260" y="130" width="15" height="50" fill="#8B4513"/>
  <rect x="320" y="130" width="15" height="50" fill="#8B4513"/>
  <!-- Fence boards -->
  <rect x="10" y="135" width="60" height="40" fill="#D2691E" stroke="#8B4513" stroke-width="1"/>
  <rect x="70" y="135" width="60" height="40" fill="#D2691E" stroke="#8B4513" stroke-width="1"/>
  <rect x="130" y="135" width="60" height="40" fill="#D2691E" stroke="#8B4513" stroke-width="1"/>
  <rect x="190" y="135" width="60" height="40" fill="#D2691E" stroke="#8B4513" stroke-width="1"/>
  <rect x="250" y="135" width="60" height="40" fill="#D2691E" stroke="#8B4513" stroke-width="1"/>
  <rect x="310" y="135" width="60" height="40" fill="#D2691E" stroke="#8B4513" stroke-width="1"/>
  <!-- Wood grain lines -->
  <line x1="15" y1="140" x2="65" y2="140" stroke="#8B4513" stroke-width="0.5"/>
  <line x1="15" y1="150" x2="65" y2="150" stroke="#8B4513" stroke-width="0.5"/>
  <line x1="75" y1="140" x2="125" y2="140" stroke="#8B4513" stroke-width="0.5"/>
  <line x1="75" y1="150" x2="125" y2="150" stroke="#8B4513" stroke-width="0.5"/>
</svg>
